<svg width="16" height="16" viewBox="0 0 16 16" fill="none" xmlns="http://www.w3.org/2000/svg">
<path d="M4.31331 5.68676C4.11798 5.49143 4.11798 5.17474 4.31331 4.97941L7.64665 1.64607C7.69265 1.60007 7.74807 1.56333 7.80941 1.538C7.93141 1.48733 8.06941 1.48733 8.19141 1.538C8.25274 1.56333 8.308 1.60007 8.354 1.64607L11.6873 4.97941C11.8827 5.17474 11.8827 5.49143 11.6873 5.68676C11.59 5.7841 11.462 5.83341 11.334 5.83341C11.206 5.83341 11.078 5.78476 10.9806 5.68676L8.50065 3.20678V11.3334C8.50065 11.6094 8.27665 11.8334 8.00065 11.8334C7.72465 11.8334 7.50065 11.6094 7.50065 11.3334V3.20743L5.02067 5.68741C4.82467 5.88208 4.50865 5.8821 4.31331 5.68676ZM12 13.5001H4C3.724 13.5001 3.5 13.7241 3.5 14.0001C3.5 14.2761 3.724 14.5001 4 14.5001H12C12.276 14.5001 12.5 14.2761 12.5 14.0001C12.5 13.7241 12.276 13.5001 12 13.5001Z" fill="#595959"/>
</svg>
